<?xml version="1.0" encoding="UTF-8" ?>
<!DOCTYPE svg PUBLIC "-//W3C//DTD SVG 1.1//EN" "http://www.w3.org/Graphics/SVG/1.1/DTD/svg11.dtd">
<svg width="1024pt" height="1024pt" viewBox="0 0 1024 1024" version="1.1" xmlns="http://www.w3.org/2000/svg">
<g id="#007acdff">
<path fill="#007acd" opacity="1.00" d=" M 0.00 0.00 L 1024.00 0.00 L 1024.00 1024.00 L 0.00 1024.00 L 0.00 0.00 M 581.46 205.17 C 575.73 215.00 570.31 224.99 564.89 235.00 C 555.15 253.11 545.71 271.52 538.99 291.00 C 535.73 301.36 532.97 311.87 530.56 322.45 C 526.87 336.49 525.60 351.07 521.44 365.00 C 513.90 402.76 509.13 440.99 503.29 479.03 C 496.67 525.08 489.53 571.06 483.39 617.18 C 492.52 619.34 501.67 621.62 510.97 622.89 C 512.27 614.80 515.00 607.04 516.63 599.03 C 529.23 548.57 541.07 497.92 553.15 447.33 C 564.25 399.64 575.50 351.96 584.25 303.77 C 585.57 297.27 585.80 290.63 586.28 284.04 C 587.41 257.72 587.20 231.24 583.09 205.16 C 582.68 205.16 581.86 205.17 581.46 205.17 M 616.50 317.50 C 684.53 382.76 752.59 448.00 820.63 513.25 C 752.59 578.50 684.54 643.74 616.50 709.00 C 637.19 708.99 657.89 709.02 678.59 708.99 C 732.38 657.66 786.22 606.37 840.03 555.05 C 849.36 546.38 858.21 537.18 867.97 528.98 C 873.00 523.93 877.98 518.81 882.99 513.74 C 875.85 506.95 869.67 499.25 862.31 492.70 C 801.06 434.29 739.80 375.90 678.55 317.50 C 657.86 317.50 637.18 317.49 616.50 317.50 M 160.44 493.41 C 153.38 499.77 147.41 507.21 140.51 513.75 C 145.80 519.03 150.92 524.48 156.30 529.67 C 162.22 534.38 167.43 539.90 172.97 545.04 C 230.30 599.69 287.62 654.36 344.95 709.00 C 365.64 709.00 386.32 709.00 407.01 709.00 C 338.96 643.74 270.91 578.50 202.87 513.25 C 270.91 448.00 338.97 382.76 407.01 317.50 C 386.32 317.49 365.64 317.50 344.95 317.50 C 283.45 376.13 221.94 434.77 160.44 493.41 M 394.53 499.60 C 393.67 500.13 393.16 500.90 393.00 501.92 C 390.83 510.86 388.99 519.89 387.02 528.88 C 385.22 538.48 382.59 547.93 381.16 557.61 C 400.31 548.90 419.98 541.40 439.37 533.24 C 456.94 525.89 474.67 518.92 492.17 511.40 C 492.32 505.54 493.66 499.82 494.39 494.03 C 498.01 469.03 501.94 444.08 505.58 419.09 C 468.45 445.78 431.77 473.07 394.53 499.60 M 543.37 518.00 C 542.86 519.61 543.16 521.30 544.51 522.40 C 570.54 551.07 596.24 580.04 621.99 608.96 C 624.87 589.17 629.29 569.63 632.62 549.92 C 630.44 544.27 626.94 539.16 624.34 533.67 C 604.87 496.92 585.33 460.21 565.75 423.52 C 558.15 454.98 550.64 486.47 543.37 518.00 M 373.65 485.42 C 370.00 502.65 366.53 519.93 362.71 537.13 C 360.43 547.41 359.00 557.86 356.49 568.09 C 362.46 566.46 367.74 563.07 373.57 561.07 C 375.83 550.74 377.65 540.32 380.01 530.02 C 384.34 507.56 389.95 485.34 393.67 462.76 C 386.92 470.24 380.53 478.05 373.65 485.42 M 646.00 516.42 C 639.82 549.32 633.54 582.23 627.51 615.16 C 632.13 619.80 635.93 625.25 640.94 629.49 C 644.80 604.22 649.63 579.11 654.00 553.92 C 654.43 550.38 656.02 546.74 654.77 543.20 C 651.97 533.80 649.31 524.35 646.82 514.87 C 646.61 515.26 646.21 516.03 646.00 516.42 M 420.62 607.50 C 419.04 617.27 416.79 626.93 415.28 636.72 C 435.73 629.89 456.53 624.10 476.69 616.41 C 479.38 596.80 482.71 577.27 484.83 557.60 C 463.28 574.03 442.09 590.94 420.62 607.50 M 531.86 566.33 C 529.96 572.19 528.58 578.20 527.09 584.18 C 523.93 597.82 520.02 611.30 517.07 624.99 C 531.19 639.07 545.73 652.71 560.18 666.44 C 562.10 656.84 564.30 647.31 566.36 637.75 C 566.74 636.48 566.57 635.16 565.91 634.04 C 554.48 611.51 543.63 588.69 531.86 566.33 M 473.67 637.39 C 469.38 674.36 463.87 711.19 459.24 748.11 C 460.10 747.31 460.73 746.29 460.90 745.11 C 468.57 709.98 476.46 674.89 484.45 639.82 C 480.85 639.04 477.26 638.23 473.67 637.39 M 497.94 643.30 C 496.32 655.62 494.02 667.84 492.06 680.11 C 484.76 723.75 477.75 767.44 470.15 811.03 C 469.67 814.08 468.70 817.25 469.79 820.30 C 470.72 818.97 471.73 817.64 471.99 816.00 C 480.49 778.86 489.38 741.83 497.77 704.67 C 502.38 685.00 506.72 665.27 511.71 645.69 C 507.11 644.93 502.52 644.13 497.94 643.30 Z" />
</g>
<g id="#fefefeff">
<path fill="#fefefe" opacity="1.00" d=" M 581.46 205.17 C 581.86 205.17 582.68 205.16 583.09 205.16 C 587.20 231.24 587.41 257.72 586.28 284.04 C 585.80 290.63 585.57 297.27 584.25 303.77 C 575.50 351.96 564.25 399.64 553.15 447.33 C 541.07 497.92 529.23 548.57 516.63 599.03 C 515.00 607.04 512.27 614.80 510.97 622.89 C 501.67 621.62 492.52 619.34 483.39 617.18 C 489.53 571.06 496.67 525.08 503.29 479.03 C 509.13 440.99 513.90 402.76 521.44 365.00 C 525.60 351.07 526.87 336.49 530.56 322.45 C 532.97 311.87 535.73 301.36 538.99 291.00 C 545.71 271.52 555.15 253.11 564.89 235.00 C 570.31 224.99 575.73 215.00 581.46 205.17 Z" />
<path fill="#fefefe" opacity="1.00" d=" M 616.50 317.50 C 637.18 317.49 657.86 317.50 678.55 317.50 C 739.80 375.90 801.06 434.29 862.31 492.70 C 869.67 499.25 875.85 506.95 882.99 513.74 C 877.98 518.81 873.00 523.93 867.97 528.98 C 858.21 537.18 849.36 546.38 840.03 555.05 C 786.22 606.37 732.38 657.66 678.59 708.99 C 657.89 709.02 637.19 708.99 616.50 709.00 C 684.54 643.74 752.59 578.50 820.63 513.25 C 752.59 448.00 684.53 382.76 616.50 317.50 Z" />
<path fill="#fefefe" opacity="1.00" d=" M 160.44 493.41 C 221.94 434.77 283.45 376.13 344.95 317.50 C 365.64 317.50 386.32 317.49 407.01 317.50 C 338.97 382.76 270.91 448.00 202.87 513.25 C 270.91 578.50 338.96 643.74 407.01 709.00 C 386.32 709.00 365.64 709.00 344.95 709.00 C 287.62 654.36 230.30 599.69 172.97 545.04 C 167.43 539.90 162.22 534.38 156.30 529.67 C 150.92 524.48 145.80 519.03 140.51 513.75 C 147.41 507.21 153.38 499.77 160.44 493.41 Z" />
<path fill="#fefefe" opacity="1.00" d=" M 394.53 499.60 C 431.77 473.07 468.45 445.78 505.58 419.09 C 501.94 444.08 498.01 469.03 494.39 494.03 C 493.66 499.82 492.32 505.54 492.17 511.40 C 474.67 518.92 456.94 525.89 439.37 533.24 C 419.98 541.40 400.31 548.90 381.16 557.61 C 382.59 547.93 385.22 538.48 387.02 528.88 C 388.99 519.89 390.83 510.86 393.00 501.92 C 393.16 500.90 393.67 500.13 394.53 499.60 Z" />
<path fill="#fefefe" opacity="1.00" d=" M 543.37 518.00 C 550.64 486.47 558.15 454.98 565.75 423.52 C 585.33 460.21 604.87 496.92 624.34 533.67 C 626.94 539.16 630.44 544.27 632.62 549.92 C 629.29 569.63 624.87 589.17 621.99 608.96 C 596.24 580.04 570.54 551.07 544.51 522.40 C 543.16 521.30 542.86 519.61 543.37 518.00 Z" />
<path fill="#fefefe" opacity="1.00" d=" M 373.65 485.42 C 380.53 478.05 386.92 470.24 393.67 462.76 C 389.95 485.34 384.34 507.56 380.01 530.02 C 377.65 540.32 375.83 550.74 373.57 561.07 C 367.74 563.07 362.46 566.46 356.49 568.09 C 359.00 557.86 360.43 547.41 362.71 537.13 C 366.53 519.93 370.00 502.65 373.65 485.42 Z" />
<path fill="#fefefe" opacity="1.00" d=" M 646.00 516.42 C 646.21 516.03 646.61 515.26 646.82 514.87 C 649.31 524.35 651.97 533.80 654.77 543.20 C 656.02 546.74 654.43 550.38 654.00 553.92 C 649.63 579.11 644.80 604.22 640.94 629.49 C 635.93 625.25 632.13 619.80 627.51 615.16 C 633.54 582.23 639.82 549.32 646.00 516.42 Z" />
<path fill="#fefefe" opacity="1.00" d=" M 420.62 607.50 C 442.09 590.94 463.28 574.03 484.83 557.60 C 482.71 577.27 479.38 596.80 476.69 616.41 C 456.53 624.10 435.73 629.89 415.28 636.72 C 416.79 626.93 419.04 617.27 420.62 607.50 Z" />
<path fill="#fefefe" opacity="1.00" d=" M 531.86 566.33 C 543.63 588.69 554.48 611.51 565.91 634.04 C 566.57 635.16 566.74 636.48 566.36 637.75 C 564.30 647.31 562.10 656.84 560.18 666.44 C 545.73 652.71 531.19 639.07 517.07 624.99 C 520.02 611.30 523.93 597.82 527.09 584.18 C 528.58 578.20 529.96 572.19 531.86 566.33 Z" />
<path fill="#fefefe" opacity="1.00" d=" M 473.67 637.39 C 477.26 638.23 480.85 639.04 484.45 639.82 C 476.46 674.89 468.57 709.98 460.90 745.11 C 460.73 746.29 460.10 747.31 459.24 748.11 C 463.87 711.19 469.38 674.36 473.67 637.39 Z" />
<path fill="#fefefe" opacity="1.00" d=" M 497.94 643.30 C 502.52 644.13 507.11 644.93 511.71 645.69 C 506.72 665.27 502.38 685.00 497.77 704.67 C 489.38 741.83 480.49 778.86 471.99 816.00 C 471.73 817.64 470.72 818.97 469.79 820.30 C 468.70 817.25 469.67 814.08 470.15 811.03 C 477.75 767.44 484.76 723.75 492.06 680.11 C 494.02 667.84 496.32 655.62 497.94 643.30 Z" />
</g>
</svg>
